<mxfile host="app.diagrams.net" modified="2021-07-29T10:29:55.631Z" agent="5.0 (X11)" etag="shlwKVsXTIyDswhjPCtP" version="14.9.2" type="github">
  <diagram id="A54lT0XJ53BqL6et2pLL" name="Page-1">
    <mxGraphModel dx="1176" dy="1337" grid="1" gridSize="10" guides="1" tooltips="1" connect="1" arrows="1" fold="1" page="1" pageScale="1" pageWidth="850" pageHeight="1100" math="0" shadow="0">
      <root>
        <mxCell id="0" />
        <mxCell id="1" parent="0" />
        <mxCell id="ikEH7iGtATOYka3_z86n-114" value="" style="group" parent="1" vertex="1" connectable="0">
          <mxGeometry x="365" y="100" width="390" height="180" as="geometry" />
        </mxCell>
        <mxCell id="ikEH7iGtATOYka3_z86n-1" value="" style="rounded=0;whiteSpace=wrap;html=1;fontSize=20;align=center;" parent="ikEH7iGtATOYka3_z86n-114" vertex="1">
          <mxGeometry width="390" height="180" as="geometry" />
        </mxCell>
        <mxCell id="ikEH7iGtATOYka3_z86n-2" value="" style="html=1;verticalLabelPosition=bottom;verticalAlign=top;outlineConnect=0;shadow=0;dashed=0;shape=mxgraph.rack.hpe_aruba.switches.rj45_sfp;" parent="ikEH7iGtATOYka3_z86n-114" vertex="1">
          <mxGeometry x="340" y="60" width="50" height="50" as="geometry" />
        </mxCell>
        <mxCell id="ikEH7iGtATOYka3_z86n-4" value="" style="rounded=0;whiteSpace=wrap;html=1;" parent="ikEH7iGtATOYka3_z86n-114" vertex="1">
          <mxGeometry x="20" y="25" width="10" height="10" as="geometry" />
        </mxCell>
        <mxCell id="ikEH7iGtATOYka3_z86n-5" value="" style="rounded=0;whiteSpace=wrap;html=1;" parent="ikEH7iGtATOYka3_z86n-114" vertex="1">
          <mxGeometry x="50" y="25" width="10" height="10" as="geometry" />
        </mxCell>
        <mxCell id="ikEH7iGtATOYka3_z86n-6" value="" style="rounded=0;whiteSpace=wrap;html=1;" parent="ikEH7iGtATOYka3_z86n-114" vertex="1">
          <mxGeometry x="20" y="55" width="10" height="10" as="geometry" />
        </mxCell>
        <mxCell id="ikEH7iGtATOYka3_z86n-7" value="" style="rounded=0;whiteSpace=wrap;html=1;" parent="ikEH7iGtATOYka3_z86n-114" vertex="1">
          <mxGeometry x="50" y="55" width="10" height="10" as="geometry" />
        </mxCell>
        <mxCell id="ikEH7iGtATOYka3_z86n-8" value="" style="rounded=0;whiteSpace=wrap;html=1;" parent="ikEH7iGtATOYka3_z86n-114" vertex="1">
          <mxGeometry x="20" y="85" width="10" height="10" as="geometry" />
        </mxCell>
        <mxCell id="ikEH7iGtATOYka3_z86n-9" value="" style="rounded=0;whiteSpace=wrap;html=1;" parent="ikEH7iGtATOYka3_z86n-114" vertex="1">
          <mxGeometry x="50" y="85" width="10" height="10" as="geometry" />
        </mxCell>
        <mxCell id="ikEH7iGtATOYka3_z86n-10" value="" style="rounded=0;whiteSpace=wrap;html=1;" parent="ikEH7iGtATOYka3_z86n-114" vertex="1">
          <mxGeometry x="20" y="115" width="10" height="10" as="geometry" />
        </mxCell>
        <mxCell id="ikEH7iGtATOYka3_z86n-11" value="" style="rounded=0;whiteSpace=wrap;html=1;" parent="ikEH7iGtATOYka3_z86n-114" vertex="1">
          <mxGeometry x="50" y="115" width="10" height="10" as="geometry" />
        </mxCell>
        <mxCell id="ikEH7iGtATOYka3_z86n-12" value="" style="rounded=0;whiteSpace=wrap;html=1;" parent="ikEH7iGtATOYka3_z86n-114" vertex="1">
          <mxGeometry x="20" y="145" width="10" height="10" as="geometry" />
        </mxCell>
        <mxCell id="ikEH7iGtATOYka3_z86n-13" value="" style="rounded=0;whiteSpace=wrap;html=1;" parent="ikEH7iGtATOYka3_z86n-114" vertex="1">
          <mxGeometry x="50" y="145" width="10" height="10" as="geometry" />
        </mxCell>
        <mxCell id="ikEH7iGtATOYka3_z86n-14" value="CLK NT" style="text;html=1;strokeColor=none;fillColor=none;align=left;verticalAlign=middle;whiteSpace=wrap;rounded=0;fontFamily=Courier New;fontSize=14;" parent="ikEH7iGtATOYka3_z86n-114" vertex="1">
          <mxGeometry x="70" y="20" width="70" height="20" as="geometry" />
        </mxCell>
        <mxCell id="ikEH7iGtATOYka3_z86n-15" value="WOL SO" style="text;html=1;strokeColor=none;fillColor=none;align=left;verticalAlign=middle;whiteSpace=wrap;rounded=0;fontFamily=Courier New;fontSize=14;" parent="ikEH7iGtATOYka3_z86n-114" vertex="1">
          <mxGeometry x="70" y="50" width="70" height="20" as="geometry" />
        </mxCell>
        <mxCell id="ikEH7iGtATOYka3_z86n-16" value="SI&amp;nbsp; SCK" style="text;html=1;strokeColor=none;fillColor=none;align=left;verticalAlign=middle;whiteSpace=wrap;rounded=0;fontFamily=Courier New;fontSize=14;" parent="ikEH7iGtATOYka3_z86n-114" vertex="1">
          <mxGeometry x="70" y="80" width="70" height="20" as="geometry" />
        </mxCell>
        <mxCell id="ikEH7iGtATOYka3_z86n-17" value="CS&amp;nbsp; RST" style="text;html=1;strokeColor=none;fillColor=none;align=left;verticalAlign=middle;whiteSpace=wrap;rounded=0;fontFamily=Courier New;fontSize=14;" parent="ikEH7iGtATOYka3_z86n-114" vertex="1">
          <mxGeometry x="70" y="110" width="70" height="20" as="geometry" />
        </mxCell>
        <mxCell id="ikEH7iGtATOYka3_z86n-18" value="VCC GND" style="text;html=1;strokeColor=none;fillColor=none;align=left;verticalAlign=middle;whiteSpace=wrap;rounded=0;fontFamily=Courier New;fontSize=14;" parent="ikEH7iGtATOYka3_z86n-114" vertex="1">
          <mxGeometry x="70" y="140" width="70" height="20" as="geometry" />
        </mxCell>
        <mxCell id="ikEH7iGtATOYka3_z86n-19" value="&lt;div style=&quot;font-size: 20px&quot;&gt;ENC28J60&lt;/div&gt;&lt;div style=&quot;font-size: 20px&quot;&gt;Ethernet&lt;/div&gt;" style="text;html=1;strokeColor=none;fillColor=none;align=center;verticalAlign=middle;whiteSpace=wrap;rounded=0;fontSize=20;" parent="ikEH7iGtATOYka3_z86n-114" vertex="1">
          <mxGeometry x="180" y="55" width="120" height="70" as="geometry" />
        </mxCell>
        <mxCell id="ikEH7iGtATOYka3_z86n-122" value="&lt;div&gt;13 - SCK&lt;/div&gt;&lt;div&gt;12 - (MI)SO&lt;/div&gt;&lt;div&gt;11 - (MO)SI&lt;/div&gt;&lt;div&gt;10 - (SS)CS&lt;br&gt;&lt;/div&gt;" style="text;html=1;strokeColor=none;fillColor=none;align=left;verticalAlign=top;whiteSpace=wrap;rounded=0;fontSize=20;fontFamily=Courier New;" parent="1" vertex="1">
          <mxGeometry x="645" y="300" width="165" height="110" as="geometry" />
        </mxCell>
        <mxCell id="ikEH7iGtATOYka3_z86n-128" style="edgeStyle=orthogonalEdgeStyle;rounded=0;orthogonalLoop=1;jettySize=auto;html=1;exitX=0.5;exitY=1;exitDx=0;exitDy=0;fontSize=20;endArrow=none;endFill=0;" parent="1" source="ikEH7iGtATOYka3_z86n-13" edge="1">
          <mxGeometry relative="1" as="geometry">
            <mxPoint x="420" y="305" as="targetPoint" />
            <Array as="points">
              <mxPoint x="420" y="305" />
            </Array>
          </mxGeometry>
        </mxCell>
        <mxCell id="ikEH7iGtATOYka3_z86n-133" style="edgeStyle=orthogonalEdgeStyle;rounded=0;orthogonalLoop=1;jettySize=auto;html=1;exitX=0.5;exitY=1;exitDx=0;exitDy=0;fontSize=20;endArrow=none;endFill=0;" parent="1" source="ikEH7iGtATOYka3_z86n-12" edge="1">
          <mxGeometry relative="1" as="geometry">
            <mxPoint x="390" y="340" as="targetPoint" />
            <Array as="points">
              <mxPoint x="390" y="300" />
              <mxPoint x="390" y="300" />
            </Array>
          </mxGeometry>
        </mxCell>
        <mxCell id="ikEH7iGtATOYka3_z86n-135" value="" style="ellipse;whiteSpace=wrap;html=1;aspect=fixed;fontSize=20;align=left;verticalAlign=top;fillColor=#000000;" parent="1" vertex="1">
          <mxGeometry x="415" y="300" width="10" height="10" as="geometry" />
        </mxCell>
        <mxCell id="ikEH7iGtATOYka3_z86n-136" value="" style="ellipse;whiteSpace=wrap;html=1;aspect=fixed;fontSize=20;align=left;verticalAlign=top;fillColor=#000000;" parent="1" vertex="1">
          <mxGeometry x="385" y="340" width="10" height="10" as="geometry" />
        </mxCell>
        <mxCell id="ikEH7iGtATOYka3_z86n-137" value="GND" style="text;html=1;strokeColor=none;fillColor=none;align=center;verticalAlign=middle;whiteSpace=wrap;rounded=0;fontSize=20;" parent="1" vertex="1">
          <mxGeometry x="435" y="295" width="40" height="20" as="geometry" />
        </mxCell>
        <mxCell id="ikEH7iGtATOYka3_z86n-138" value="+3.3V" style="text;html=1;strokeColor=none;fillColor=none;align=center;verticalAlign=middle;whiteSpace=wrap;rounded=0;fontSize=20;" parent="1" vertex="1">
          <mxGeometry x="405" y="335" width="50" height="20" as="geometry" />
        </mxCell>
        <mxCell id="ikEH7iGtATOYka3_z86n-139" value="" style="ellipse;whiteSpace=wrap;html=1;aspect=fixed;fontSize=20;align=left;verticalAlign=top;fillColor=#000000;" parent="1" vertex="1">
          <mxGeometry x="295" y="710" width="10" height="10" as="geometry" />
        </mxCell>
        <mxCell id="ikEH7iGtATOYka3_z86n-140" value="" style="ellipse;whiteSpace=wrap;html=1;aspect=fixed;fontSize=20;align=left;verticalAlign=top;fillColor=#000000;" parent="1" vertex="1">
          <mxGeometry x="295" y="740" width="10" height="10" as="geometry" />
        </mxCell>
        <mxCell id="ikEH7iGtATOYka3_z86n-141" value="GND" style="text;html=1;strokeColor=none;fillColor=none;align=right;verticalAlign=middle;whiteSpace=wrap;rounded=0;fontSize=20;" parent="1" vertex="1">
          <mxGeometry x="230" y="705" width="55" height="20" as="geometry" />
        </mxCell>
        <mxCell id="ikEH7iGtATOYka3_z86n-142" value="5V" style="text;html=1;strokeColor=none;fillColor=none;align=right;verticalAlign=middle;whiteSpace=wrap;rounded=0;fontSize=20;" parent="1" vertex="1">
          <mxGeometry x="220" y="735" width="65" height="20" as="geometry" />
        </mxCell>
        <mxCell id="ikEH7iGtATOYka3_z86n-175" value="" style="group" parent="1" vertex="1" connectable="0">
          <mxGeometry x="30" y="70" width="180" height="209.43" as="geometry" />
        </mxCell>
        <mxCell id="ikEH7iGtATOYka3_z86n-145" value="" style="ellipse;whiteSpace=wrap;html=1;aspect=fixed;fontSize=20;align=left;verticalAlign=top;fillColor=#000000;" parent="ikEH7iGtATOYka3_z86n-175" vertex="1">
          <mxGeometry x="70" y="59.43000000000001" width="10" height="10" as="geometry" />
        </mxCell>
        <mxCell id="ikEH7iGtATOYka3_z86n-146" value="" style="ellipse;whiteSpace=wrap;html=1;aspect=fixed;fontSize=20;align=left;verticalAlign=top;fillColor=#000000;" parent="ikEH7iGtATOYka3_z86n-175" vertex="1">
          <mxGeometry x="100" y="59.43000000000001" width="10" height="10" as="geometry" />
        </mxCell>
        <mxCell id="ikEH7iGtATOYka3_z86n-147" value="" style="ellipse;whiteSpace=wrap;html=1;aspect=fixed;fontSize=20;align=left;verticalAlign=top;fillColor=#000000;" parent="ikEH7iGtATOYka3_z86n-175" vertex="1">
          <mxGeometry x="70" y="89.43" width="10" height="10" as="geometry" />
        </mxCell>
        <mxCell id="ikEH7iGtATOYka3_z86n-148" value="" style="ellipse;whiteSpace=wrap;html=1;aspect=fixed;fontSize=20;align=left;verticalAlign=top;fillColor=#000000;" parent="ikEH7iGtATOYka3_z86n-175" vertex="1">
          <mxGeometry x="100" y="89.43" width="10" height="10" as="geometry" />
        </mxCell>
        <mxCell id="ikEH7iGtATOYka3_z86n-149" value="" style="ellipse;whiteSpace=wrap;html=1;aspect=fixed;fontSize=20;align=left;verticalAlign=top;fillColor=#000000;" parent="ikEH7iGtATOYka3_z86n-175" vertex="1">
          <mxGeometry x="70" y="119.43" width="10" height="10" as="geometry" />
        </mxCell>
        <mxCell id="ikEH7iGtATOYka3_z86n-150" value="" style="ellipse;whiteSpace=wrap;html=1;aspect=fixed;fontSize=20;align=left;verticalAlign=top;fillColor=#000000;" parent="ikEH7iGtATOYka3_z86n-175" vertex="1">
          <mxGeometry x="100" y="119.43" width="10" height="10" as="geometry" />
        </mxCell>
        <mxCell id="ikEH7iGtATOYka3_z86n-151" value="" style="ellipse;whiteSpace=wrap;html=1;aspect=fixed;fontSize=20;align=left;verticalAlign=top;fillColor=#000000;" parent="ikEH7iGtATOYka3_z86n-175" vertex="1">
          <mxGeometry x="70" y="149.43" width="10" height="10" as="geometry" />
        </mxCell>
        <mxCell id="ikEH7iGtATOYka3_z86n-152" value="" style="ellipse;whiteSpace=wrap;html=1;aspect=fixed;fontSize=20;align=left;verticalAlign=top;fillColor=#000000;" parent="ikEH7iGtATOYka3_z86n-175" vertex="1">
          <mxGeometry x="100" y="149.43" width="10" height="10" as="geometry" />
        </mxCell>
        <mxCell id="ikEH7iGtATOYka3_z86n-153" value="" style="ellipse;whiteSpace=wrap;html=1;aspect=fixed;fontSize=20;align=left;verticalAlign=top;fillColor=#000000;" parent="ikEH7iGtATOYka3_z86n-175" vertex="1">
          <mxGeometry x="70" y="179.43" width="10" height="10" as="geometry" />
        </mxCell>
        <mxCell id="ikEH7iGtATOYka3_z86n-154" value="" style="ellipse;whiteSpace=wrap;html=1;aspect=fixed;fontSize=20;align=left;verticalAlign=top;fillColor=#000000;" parent="ikEH7iGtATOYka3_z86n-175" vertex="1">
          <mxGeometry x="100" y="179.43" width="10" height="10" as="geometry" />
        </mxCell>
        <mxCell id="ikEH7iGtATOYka3_z86n-159" value="" style="endArrow=none;html=1;fontFamily=Courier New;fontSize=14;strokeWidth=3;" parent="ikEH7iGtATOYka3_z86n-175" edge="1">
          <mxGeometry width="50" height="50" relative="1" as="geometry">
            <mxPoint x="50" y="209.43" as="sourcePoint" />
            <mxPoint x="50" y="139.43" as="targetPoint" />
          </mxGeometry>
        </mxCell>
        <mxCell id="ikEH7iGtATOYka3_z86n-160" value="" style="endArrow=none;html=1;fontFamily=Courier New;fontSize=14;strokeWidth=3;" parent="ikEH7iGtATOYka3_z86n-175" edge="1">
          <mxGeometry width="50" height="50" relative="1" as="geometry">
            <mxPoint x="50" y="109.43" as="sourcePoint" />
            <mxPoint x="50" y="39.43000000000001" as="targetPoint" />
          </mxGeometry>
        </mxCell>
        <mxCell id="ikEH7iGtATOYka3_z86n-161" value="" style="endArrow=none;html=1;fontFamily=Courier New;fontSize=14;strokeWidth=3;" parent="ikEH7iGtATOYka3_z86n-175" edge="1">
          <mxGeometry width="50" height="50" relative="1" as="geometry">
            <mxPoint x="130" y="209.43" as="sourcePoint" />
            <mxPoint x="130" y="39.43000000000001" as="targetPoint" />
          </mxGeometry>
        </mxCell>
        <mxCell id="ikEH7iGtATOYka3_z86n-162" value="" style="endArrow=none;html=1;fontFamily=Courier New;fontSize=14;strokeWidth=3;" parent="ikEH7iGtATOYka3_z86n-175" edge="1">
          <mxGeometry width="50" height="50" relative="1" as="geometry">
            <mxPoint x="50" y="209.43" as="sourcePoint" />
            <mxPoint x="130" y="209.43" as="targetPoint" />
          </mxGeometry>
        </mxCell>
        <mxCell id="ikEH7iGtATOYka3_z86n-163" value="" style="endArrow=none;html=1;fontFamily=Courier New;fontSize=14;strokeWidth=3;" parent="ikEH7iGtATOYka3_z86n-175" edge="1">
          <mxGeometry width="50" height="50" relative="1" as="geometry">
            <mxPoint x="50" y="39.43000000000001" as="sourcePoint" />
            <mxPoint x="130" y="39.43000000000001" as="targetPoint" />
          </mxGeometry>
        </mxCell>
        <mxCell id="ikEH7iGtATOYka3_z86n-164" value="&lt;div&gt;MOSI&lt;br&gt;&lt;/div&gt;" style="text;html=1;strokeColor=none;fillColor=none;align=right;verticalAlign=middle;whiteSpace=wrap;rounded=0;fontFamily=Courier New;fontSize=14;" parent="ikEH7iGtATOYka3_z86n-175" vertex="1">
          <mxGeometry y="56.65000000000002" width="40" height="15.57" as="geometry" />
        </mxCell>
        <mxCell id="ikEH7iGtATOYka3_z86n-165" value="&lt;div&gt;GND&lt;/div&gt;" style="text;html=1;strokeColor=none;fillColor=none;align=right;verticalAlign=middle;whiteSpace=wrap;rounded=0;fontFamily=Courier New;fontSize=14;" parent="ikEH7iGtATOYka3_z86n-175" vertex="1">
          <mxGeometry y="86.93" width="40" height="15" as="geometry" />
        </mxCell>
        <mxCell id="ikEH7iGtATOYka3_z86n-166" value="&lt;div&gt;RST&lt;br&gt;&lt;/div&gt;" style="text;html=1;strokeColor=none;fillColor=none;align=right;verticalAlign=middle;whiteSpace=wrap;rounded=0;fontFamily=Courier New;fontSize=14;" parent="ikEH7iGtATOYka3_z86n-175" vertex="1">
          <mxGeometry y="117.22" width="40" height="14.43" as="geometry" />
        </mxCell>
        <mxCell id="ikEH7iGtATOYka3_z86n-167" value="&lt;div&gt;SCK&lt;br&gt;&lt;/div&gt;" style="text;html=1;strokeColor=none;fillColor=none;align=right;verticalAlign=middle;whiteSpace=wrap;rounded=0;fontFamily=Courier New;fontSize=14;" parent="ikEH7iGtATOYka3_z86n-175" vertex="1">
          <mxGeometry y="147.22" width="40" height="14.43" as="geometry" />
        </mxCell>
        <mxCell id="ikEH7iGtATOYka3_z86n-168" value="&lt;div&gt;MISO&lt;br&gt;&lt;/div&gt;" style="text;html=1;strokeColor=none;fillColor=none;align=right;verticalAlign=middle;whiteSpace=wrap;rounded=0;fontFamily=Courier New;fontSize=14;" parent="ikEH7iGtATOYka3_z86n-175" vertex="1">
          <mxGeometry y="176.93" width="40" height="15" as="geometry" />
        </mxCell>
        <mxCell id="ikEH7iGtATOYka3_z86n-169" value="VCC" style="text;html=1;strokeColor=none;fillColor=none;align=left;verticalAlign=middle;whiteSpace=wrap;rounded=0;fontFamily=Courier New;fontSize=14;" parent="ikEH7iGtATOYka3_z86n-175" vertex="1">
          <mxGeometry x="140" y="56.790000000000035" width="40" height="15.57" as="geometry" />
        </mxCell>
        <mxCell id="ikEH7iGtATOYka3_z86n-170" value="&lt;div&gt;GND&lt;/div&gt;" style="text;html=1;strokeColor=none;fillColor=none;align=left;verticalAlign=middle;whiteSpace=wrap;rounded=0;fontFamily=Courier New;fontSize=14;" parent="ikEH7iGtATOYka3_z86n-175" vertex="1">
          <mxGeometry x="140" y="87.07" width="40" height="15" as="geometry" />
        </mxCell>
        <mxCell id="ikEH7iGtATOYka3_z86n-171" value="GND" style="text;html=1;strokeColor=none;fillColor=none;align=left;verticalAlign=middle;whiteSpace=wrap;rounded=0;fontFamily=Courier New;fontSize=14;" parent="ikEH7iGtATOYka3_z86n-175" vertex="1">
          <mxGeometry x="140" y="117.36000000000001" width="40" height="14.43" as="geometry" />
        </mxCell>
        <mxCell id="ikEH7iGtATOYka3_z86n-172" value="GND" style="text;html=1;strokeColor=none;fillColor=none;align=left;verticalAlign=middle;whiteSpace=wrap;rounded=0;fontFamily=Courier New;fontSize=14;" parent="ikEH7iGtATOYka3_z86n-175" vertex="1">
          <mxGeometry x="140" y="147.36" width="40" height="14.43" as="geometry" />
        </mxCell>
        <mxCell id="ikEH7iGtATOYka3_z86n-173" value="GND" style="text;html=1;strokeColor=none;fillColor=none;align=left;verticalAlign=middle;whiteSpace=wrap;rounded=0;fontFamily=Courier New;fontSize=14;" parent="ikEH7iGtATOYka3_z86n-175" vertex="1">
          <mxGeometry x="140" y="177.07" width="40" height="15" as="geometry" />
        </mxCell>
        <mxCell id="ikEH7iGtATOYka3_z86n-174" value="&lt;div&gt;Programming port&lt;br&gt;&lt;/div&gt;&lt;div&gt;USBasp&lt;/div&gt;" style="text;html=1;strokeColor=none;fillColor=none;align=center;verticalAlign=middle;whiteSpace=wrap;rounded=0;fontFamily=Courier New;fontSize=14;" parent="ikEH7iGtATOYka3_z86n-175" vertex="1">
          <mxGeometry x="20" width="140" height="30" as="geometry" />
        </mxCell>
        <mxCell id="UNyBaQ08NMkPxlNUkWCC-4" value="" style="ellipse;whiteSpace=wrap;html=1;aspect=fixed;fontSize=20;align=left;verticalAlign=top;fillColor=#000000;" parent="1" vertex="1">
          <mxGeometry x="295" y="590" width="10" height="10" as="geometry" />
        </mxCell>
        <mxCell id="UNyBaQ08NMkPxlNUkWCC-5" value="" style="ellipse;whiteSpace=wrap;html=1;aspect=fixed;fontSize=20;align=left;verticalAlign=top;fillColor=#000000;" parent="1" vertex="1">
          <mxGeometry x="295" y="620" width="10" height="10" as="geometry" />
        </mxCell>
        <mxCell id="UNyBaQ08NMkPxlNUkWCC-6" value="Debug Rx" style="text;html=1;strokeColor=none;fillColor=none;align=right;verticalAlign=middle;whiteSpace=wrap;rounded=0;fontSize=20;fontFamily=Courier New;" parent="1" vertex="1">
          <mxGeometry x="180" y="585" width="105" height="20" as="geometry" />
        </mxCell>
        <mxCell id="UNyBaQ08NMkPxlNUkWCC-7" value="Debug Tx" style="text;html=1;strokeColor=none;fillColor=none;align=right;verticalAlign=middle;whiteSpace=wrap;rounded=0;fontSize=20;fontFamily=Courier New;" parent="1" vertex="1">
          <mxGeometry x="180" y="615" width="105" height="20" as="geometry" />
        </mxCell>
        <mxCell id="CnOsLxfpY5t-l5IuzNjs-2" value="UART &amp;lt;-&amp;gt; RS-485" style="rounded=0;whiteSpace=wrap;html=1;fontSize=20;" vertex="1" parent="1">
          <mxGeometry x="270" y="890" width="360" height="130" as="geometry" />
        </mxCell>
        <mxCell id="CnOsLxfpY5t-l5IuzNjs-3" value="" style="rounded=0;whiteSpace=wrap;html=1;fontSize=20;align=center;" vertex="1" parent="1">
          <mxGeometry x="605" y="905" width="10" height="10" as="geometry" />
        </mxCell>
        <mxCell id="CnOsLxfpY5t-l5IuzNjs-86" style="edgeStyle=orthogonalEdgeStyle;rounded=0;orthogonalLoop=1;jettySize=auto;html=1;exitX=1;exitY=0.5;exitDx=0;exitDy=0;entryX=1;entryY=0.5;entryDx=0;entryDy=0;fontSize=20;endArrow=none;endFill=0;" edge="1" parent="1" source="CnOsLxfpY5t-l5IuzNjs-4" target="CnOsLxfpY5t-l5IuzNjs-5">
          <mxGeometry relative="1" as="geometry">
            <Array as="points">
              <mxPoint x="640" y="940" />
              <mxPoint x="640" y="970" />
            </Array>
          </mxGeometry>
        </mxCell>
        <mxCell id="CnOsLxfpY5t-l5IuzNjs-4" value="" style="rounded=0;whiteSpace=wrap;html=1;fontSize=20;align=center;" vertex="1" parent="1">
          <mxGeometry x="605" y="935" width="10" height="10" as="geometry" />
        </mxCell>
        <mxCell id="CnOsLxfpY5t-l5IuzNjs-5" value="" style="rounded=0;whiteSpace=wrap;html=1;fontSize=20;align=center;" vertex="1" parent="1">
          <mxGeometry x="605" y="965" width="10" height="10" as="geometry" />
        </mxCell>
        <mxCell id="CnOsLxfpY5t-l5IuzNjs-6" value="" style="rounded=0;whiteSpace=wrap;html=1;fontSize=20;align=center;" vertex="1" parent="1">
          <mxGeometry x="605" y="995" width="10" height="10" as="geometry" />
        </mxCell>
        <mxCell id="CnOsLxfpY5t-l5IuzNjs-7" value="DI" style="text;html=1;strokeColor=none;fillColor=none;align=right;verticalAlign=middle;whiteSpace=wrap;rounded=0;fontSize=20;" vertex="1" parent="1">
          <mxGeometry x="555" y="900" width="40" height="20" as="geometry" />
        </mxCell>
        <mxCell id="CnOsLxfpY5t-l5IuzNjs-8" value="DE" style="text;html=1;strokeColor=none;fillColor=none;align=right;verticalAlign=middle;whiteSpace=wrap;rounded=0;fontSize=20;" vertex="1" parent="1">
          <mxGeometry x="555" y="930" width="40" height="20" as="geometry" />
        </mxCell>
        <mxCell id="CnOsLxfpY5t-l5IuzNjs-9" value="RE" style="text;html=1;strokeColor=none;fillColor=none;align=right;verticalAlign=middle;whiteSpace=wrap;rounded=0;fontSize=20;" vertex="1" parent="1">
          <mxGeometry x="555" y="960" width="40" height="20" as="geometry" />
        </mxCell>
        <mxCell id="CnOsLxfpY5t-l5IuzNjs-10" value="RO" style="text;html=1;strokeColor=none;fillColor=none;align=right;verticalAlign=middle;whiteSpace=wrap;rounded=0;fontSize=20;" vertex="1" parent="1">
          <mxGeometry x="555" y="990" width="40" height="20" as="geometry" />
        </mxCell>
        <mxCell id="CnOsLxfpY5t-l5IuzNjs-82" value="" style="group" vertex="1" connectable="0" parent="1">
          <mxGeometry x="360" y="400" width="270" height="430" as="geometry" />
        </mxCell>
        <mxCell id="ikEH7iGtATOYka3_z86n-115" value="" style="rounded=0;whiteSpace=wrap;html=1;fontSize=20;align=left;" parent="CnOsLxfpY5t-l5IuzNjs-82" vertex="1">
          <mxGeometry width="270" height="430" as="geometry" />
        </mxCell>
        <mxCell id="ikEH7iGtATOYka3_z86n-25" value="" style="rounded=0;whiteSpace=wrap;html=1;fontSize=20;align=center;" parent="CnOsLxfpY5t-l5IuzNjs-82" vertex="1">
          <mxGeometry x="10.384615384615383" y="10" width="10.384615384615383" height="10" as="geometry" />
        </mxCell>
        <mxCell id="ikEH7iGtATOYka3_z86n-26" value="" style="rounded=0;whiteSpace=wrap;html=1;fontSize=20;align=center;" parent="CnOsLxfpY5t-l5IuzNjs-82" vertex="1">
          <mxGeometry x="10.384615384615383" y="40" width="10.384615384615383" height="10" as="geometry" />
        </mxCell>
        <mxCell id="ikEH7iGtATOYka3_z86n-27" value="" style="rounded=0;whiteSpace=wrap;html=1;fontSize=20;align=center;" parent="CnOsLxfpY5t-l5IuzNjs-82" vertex="1">
          <mxGeometry x="10.384615384615383" y="70" width="10.384615384615383" height="10" as="geometry" />
        </mxCell>
        <mxCell id="ikEH7iGtATOYka3_z86n-28" value="" style="rounded=0;whiteSpace=wrap;html=1;fontSize=20;align=center;" parent="CnOsLxfpY5t-l5IuzNjs-82" vertex="1">
          <mxGeometry x="10.384615384615383" y="100" width="10.384615384615383" height="10" as="geometry" />
        </mxCell>
        <mxCell id="ikEH7iGtATOYka3_z86n-29" value="" style="rounded=0;whiteSpace=wrap;html=1;fontSize=20;align=center;" parent="CnOsLxfpY5t-l5IuzNjs-82" vertex="1">
          <mxGeometry x="10.384615384615383" y="130" width="10.384615384615383" height="10" as="geometry" />
        </mxCell>
        <mxCell id="ikEH7iGtATOYka3_z86n-30" value="" style="rounded=0;whiteSpace=wrap;html=1;fontSize=20;align=center;" parent="CnOsLxfpY5t-l5IuzNjs-82" vertex="1">
          <mxGeometry x="10.384615384615383" y="160" width="10.384615384615383" height="10" as="geometry" />
        </mxCell>
        <mxCell id="ikEH7iGtATOYka3_z86n-31" value="" style="rounded=0;whiteSpace=wrap;html=1;fontSize=20;align=center;" parent="CnOsLxfpY5t-l5IuzNjs-82" vertex="1">
          <mxGeometry x="10.384615384615383" y="190" width="10.384615384615383" height="10" as="geometry" />
        </mxCell>
        <mxCell id="ikEH7iGtATOYka3_z86n-32" value="" style="rounded=0;whiteSpace=wrap;html=1;fontSize=20;align=center;" parent="CnOsLxfpY5t-l5IuzNjs-82" vertex="1">
          <mxGeometry x="10.384615384615383" y="220" width="10.384615384615383" height="10" as="geometry" />
        </mxCell>
        <mxCell id="ikEH7iGtATOYka3_z86n-33" value="" style="rounded=0;whiteSpace=wrap;html=1;fontSize=20;align=center;" parent="CnOsLxfpY5t-l5IuzNjs-82" vertex="1">
          <mxGeometry x="10.384615384615383" y="250" width="10.384615384615383" height="10" as="geometry" />
        </mxCell>
        <mxCell id="ikEH7iGtATOYka3_z86n-34" value="" style="rounded=0;whiteSpace=wrap;html=1;fontSize=20;align=center;" parent="CnOsLxfpY5t-l5IuzNjs-82" vertex="1">
          <mxGeometry x="10.384615384615383" y="280" width="10.384615384615383" height="10" as="geometry" />
        </mxCell>
        <mxCell id="ikEH7iGtATOYka3_z86n-35" value="" style="rounded=0;whiteSpace=wrap;html=1;fontSize=20;align=center;" parent="CnOsLxfpY5t-l5IuzNjs-82" vertex="1">
          <mxGeometry x="10.384615384615383" y="310" width="10.384615384615383" height="10" as="geometry" />
        </mxCell>
        <mxCell id="ikEH7iGtATOYka3_z86n-36" value="" style="rounded=0;whiteSpace=wrap;html=1;fontSize=20;align=center;" parent="CnOsLxfpY5t-l5IuzNjs-82" vertex="1">
          <mxGeometry x="10.384615384615383" y="340" width="10.384615384615383" height="10" as="geometry" />
        </mxCell>
        <mxCell id="ikEH7iGtATOYka3_z86n-37" value="" style="rounded=0;whiteSpace=wrap;html=1;fontSize=20;align=center;" parent="CnOsLxfpY5t-l5IuzNjs-82" vertex="1">
          <mxGeometry x="51.92307692307692" y="412.5" width="10.384615384615383" height="10" as="geometry" />
        </mxCell>
        <mxCell id="ikEH7iGtATOYka3_z86n-38" value="" style="rounded=0;whiteSpace=wrap;html=1;fontSize=20;align=center;" parent="CnOsLxfpY5t-l5IuzNjs-82" vertex="1">
          <mxGeometry x="83.07692307692307" y="412.5" width="10.384615384615383" height="10" as="geometry" />
        </mxCell>
        <mxCell id="ikEH7iGtATOYka3_z86n-39" value="" style="rounded=0;whiteSpace=wrap;html=1;fontSize=20;align=center;" parent="CnOsLxfpY5t-l5IuzNjs-82" vertex="1">
          <mxGeometry x="114.23076923076923" y="412.5" width="10.384615384615383" height="10" as="geometry" />
        </mxCell>
        <mxCell id="ikEH7iGtATOYka3_z86n-40" value="10" style="text;html=1;strokeColor=none;fillColor=none;align=left;verticalAlign=middle;whiteSpace=wrap;rounded=0;fontSize=20;" parent="CnOsLxfpY5t-l5IuzNjs-82" vertex="1">
          <mxGeometry x="31.15384615384615" y="5" width="51.92307692307692" height="20" as="geometry" />
        </mxCell>
        <mxCell id="ikEH7iGtATOYka3_z86n-42" value="&lt;div&gt;11&lt;br&gt;&lt;/div&gt;" style="text;html=1;strokeColor=none;fillColor=none;align=left;verticalAlign=middle;whiteSpace=wrap;rounded=0;fontSize=20;" parent="CnOsLxfpY5t-l5IuzNjs-82" vertex="1">
          <mxGeometry x="31.15384615384615" y="35" width="31.15384615384615" height="20" as="geometry" />
        </mxCell>
        <mxCell id="ikEH7iGtATOYka3_z86n-43" value="12 MISO" style="text;html=1;strokeColor=none;fillColor=none;align=left;verticalAlign=middle;whiteSpace=wrap;rounded=0;fontSize=20;" parent="CnOsLxfpY5t-l5IuzNjs-82" vertex="1">
          <mxGeometry x="31.15384615384615" y="65" width="93.46153846153845" height="20" as="geometry" />
        </mxCell>
        <mxCell id="ikEH7iGtATOYka3_z86n-44" value="13 SCK" style="text;html=1;strokeColor=none;fillColor=none;align=left;verticalAlign=middle;whiteSpace=wrap;rounded=0;fontSize=20;" parent="CnOsLxfpY5t-l5IuzNjs-82" vertex="1">
          <mxGeometry x="31.15384615384615" y="95" width="83.07692307692307" height="20" as="geometry" />
        </mxCell>
        <mxCell id="ikEH7iGtATOYka3_z86n-45" value="&lt;div&gt;A0&lt;/div&gt;" style="text;html=1;strokeColor=none;fillColor=none;align=left;verticalAlign=middle;whiteSpace=wrap;rounded=0;fontSize=20;" parent="CnOsLxfpY5t-l5IuzNjs-82" vertex="1">
          <mxGeometry x="31.15384615384615" y="125" width="51.92307692307692" height="20" as="geometry" />
        </mxCell>
        <mxCell id="ikEH7iGtATOYka3_z86n-46" value="A1" style="text;html=1;strokeColor=none;fillColor=none;align=left;verticalAlign=middle;whiteSpace=wrap;rounded=0;fontSize=20;" parent="CnOsLxfpY5t-l5IuzNjs-82" vertex="1">
          <mxGeometry x="31.15384615384615" y="155" width="51.92307692307692" height="20" as="geometry" />
        </mxCell>
        <mxCell id="ikEH7iGtATOYka3_z86n-47" value="A2" style="text;html=1;strokeColor=none;fillColor=none;align=left;verticalAlign=middle;whiteSpace=wrap;rounded=0;fontSize=20;" parent="CnOsLxfpY5t-l5IuzNjs-82" vertex="1">
          <mxGeometry x="31.15384615384615" y="185" width="51.92307692307692" height="20" as="geometry" />
        </mxCell>
        <mxCell id="ikEH7iGtATOYka3_z86n-48" value="A3" style="text;html=1;strokeColor=none;fillColor=none;align=left;verticalAlign=middle;whiteSpace=wrap;rounded=0;fontSize=20;" parent="CnOsLxfpY5t-l5IuzNjs-82" vertex="1">
          <mxGeometry x="31.15384615384615" y="215" width="51.92307692307692" height="20" as="geometry" />
        </mxCell>
        <mxCell id="ikEH7iGtATOYka3_z86n-49" value="VCC" style="text;html=1;strokeColor=none;fillColor=none;align=left;verticalAlign=middle;whiteSpace=wrap;rounded=0;fontSize=20;" parent="CnOsLxfpY5t-l5IuzNjs-82" vertex="1">
          <mxGeometry x="31.15384615384615" y="245" width="51.92307692307692" height="20" as="geometry" />
        </mxCell>
        <mxCell id="ikEH7iGtATOYka3_z86n-50" value="RST" style="text;html=1;strokeColor=none;fillColor=none;align=left;verticalAlign=middle;whiteSpace=wrap;rounded=0;fontSize=20;" parent="CnOsLxfpY5t-l5IuzNjs-82" vertex="1">
          <mxGeometry x="31.15384615384615" y="275" width="51.92307692307692" height="20" as="geometry" />
        </mxCell>
        <mxCell id="ikEH7iGtATOYka3_z86n-51" value="GND" style="text;html=1;strokeColor=none;fillColor=none;align=left;verticalAlign=middle;whiteSpace=wrap;rounded=0;fontSize=20;" parent="CnOsLxfpY5t-l5IuzNjs-82" vertex="1">
          <mxGeometry x="31.15384615384615" y="305" width="51.92307692307692" height="20" as="geometry" />
        </mxCell>
        <mxCell id="ikEH7iGtATOYka3_z86n-52" value="&lt;div&gt;RAW&lt;/div&gt;" style="text;html=1;strokeColor=none;fillColor=none;align=left;verticalAlign=middle;whiteSpace=wrap;rounded=0;fontSize=20;" parent="CnOsLxfpY5t-l5IuzNjs-82" vertex="1">
          <mxGeometry x="31.15384615384615" y="335" width="51.92307692307692" height="20" as="geometry" />
        </mxCell>
        <mxCell id="ikEH7iGtATOYka3_z86n-54" value="&lt;div align=&quot;left&quot;&gt;DTR&lt;/div&gt;" style="text;html=1;strokeColor=none;fillColor=none;align=left;verticalAlign=middle;whiteSpace=wrap;rounded=0;fontSize=20;rotation=-90;" parent="CnOsLxfpY5t-l5IuzNjs-82" vertex="1">
          <mxGeometry x="31.15384615384615" y="370" width="51.92307692307692" height="25" as="geometry" />
        </mxCell>
        <mxCell id="ikEH7iGtATOYka3_z86n-56" value="TX" style="text;html=1;strokeColor=none;fillColor=none;align=left;verticalAlign=middle;whiteSpace=wrap;rounded=0;fontSize=20;rotation=-90;" parent="CnOsLxfpY5t-l5IuzNjs-82" vertex="1">
          <mxGeometry x="62.3076923076923" y="370" width="51.92307692307692" height="25" as="geometry" />
        </mxCell>
        <mxCell id="ikEH7iGtATOYka3_z86n-58" value="RX" style="text;html=1;strokeColor=none;fillColor=none;align=left;verticalAlign=middle;whiteSpace=wrap;rounded=0;fontSize=20;rotation=-90;" parent="CnOsLxfpY5t-l5IuzNjs-82" vertex="1">
          <mxGeometry x="93.46153846153845" y="370" width="51.92307692307692" height="25" as="geometry" />
        </mxCell>
        <mxCell id="ikEH7iGtATOYka3_z86n-59" value="" style="rounded=0;whiteSpace=wrap;html=1;fontSize=20;align=center;" parent="CnOsLxfpY5t-l5IuzNjs-82" vertex="1">
          <mxGeometry x="145.38461538461536" y="412.5" width="10.384615384615383" height="10" as="geometry" />
        </mxCell>
        <mxCell id="ikEH7iGtATOYka3_z86n-60" value="" style="rounded=0;whiteSpace=wrap;html=1;fontSize=20;align=center;" parent="CnOsLxfpY5t-l5IuzNjs-82" vertex="1">
          <mxGeometry x="176.53846153846152" y="412.5" width="10.384615384615383" height="10" as="geometry" />
        </mxCell>
        <mxCell id="ikEH7iGtATOYka3_z86n-61" value="" style="rounded=0;whiteSpace=wrap;html=1;fontSize=20;align=center;" parent="CnOsLxfpY5t-l5IuzNjs-82" vertex="1">
          <mxGeometry x="207.69230769230768" y="412.5" width="10.384615384615383" height="10" as="geometry" />
        </mxCell>
        <mxCell id="ikEH7iGtATOYka3_z86n-62" value="VCC" style="text;html=1;strokeColor=none;fillColor=none;align=left;verticalAlign=middle;whiteSpace=wrap;rounded=0;fontSize=20;rotation=-90;" parent="CnOsLxfpY5t-l5IuzNjs-82" vertex="1">
          <mxGeometry x="124.6153846153846" y="370" width="51.92307692307692" height="25" as="geometry" />
        </mxCell>
        <mxCell id="ikEH7iGtATOYka3_z86n-63" value="GND" style="text;html=1;strokeColor=none;fillColor=none;align=left;verticalAlign=middle;whiteSpace=wrap;rounded=0;fontSize=20;rotation=-90;" parent="CnOsLxfpY5t-l5IuzNjs-82" vertex="1">
          <mxGeometry x="155.76923076923077" y="370" width="51.92307692307692" height="25" as="geometry" />
        </mxCell>
        <mxCell id="ikEH7iGtATOYka3_z86n-64" value="GND" style="text;html=1;strokeColor=none;fillColor=none;align=left;verticalAlign=middle;whiteSpace=wrap;rounded=0;fontSize=20;rotation=-90;" parent="CnOsLxfpY5t-l5IuzNjs-82" vertex="1">
          <mxGeometry x="186.9230769230769" y="370" width="51.92307692307692" height="25" as="geometry" />
        </mxCell>
        <mxCell id="ikEH7iGtATOYka3_z86n-65" value="" style="rounded=0;whiteSpace=wrap;html=1;fontSize=20;align=center;" parent="CnOsLxfpY5t-l5IuzNjs-82" vertex="1">
          <mxGeometry x="249.2307692307692" y="10" width="10.384615384615383" height="10" as="geometry" />
        </mxCell>
        <mxCell id="ikEH7iGtATOYka3_z86n-66" value="" style="rounded=0;whiteSpace=wrap;html=1;fontSize=20;align=center;" parent="CnOsLxfpY5t-l5IuzNjs-82" vertex="1">
          <mxGeometry x="249.2307692307692" y="40" width="10.384615384615383" height="10" as="geometry" />
        </mxCell>
        <mxCell id="ikEH7iGtATOYka3_z86n-67" value="" style="rounded=0;whiteSpace=wrap;html=1;fontSize=20;align=center;" parent="CnOsLxfpY5t-l5IuzNjs-82" vertex="1">
          <mxGeometry x="249.2307692307692" y="70" width="10.384615384615383" height="10" as="geometry" />
        </mxCell>
        <mxCell id="ikEH7iGtATOYka3_z86n-68" value="" style="rounded=0;whiteSpace=wrap;html=1;fontSize=20;align=center;" parent="CnOsLxfpY5t-l5IuzNjs-82" vertex="1">
          <mxGeometry x="249.2307692307692" y="100" width="10.384615384615383" height="10" as="geometry" />
        </mxCell>
        <mxCell id="ikEH7iGtATOYka3_z86n-69" value="" style="rounded=0;whiteSpace=wrap;html=1;fontSize=20;align=center;" parent="CnOsLxfpY5t-l5IuzNjs-82" vertex="1">
          <mxGeometry x="249.2307692307692" y="130" width="10.384615384615383" height="10" as="geometry" />
        </mxCell>
        <mxCell id="ikEH7iGtATOYka3_z86n-70" value="" style="rounded=0;whiteSpace=wrap;html=1;fontSize=20;align=center;" parent="CnOsLxfpY5t-l5IuzNjs-82" vertex="1">
          <mxGeometry x="249.2307692307692" y="160" width="10.384615384615383" height="10" as="geometry" />
        </mxCell>
        <mxCell id="ikEH7iGtATOYka3_z86n-71" value="" style="rounded=0;whiteSpace=wrap;html=1;fontSize=20;align=center;" parent="CnOsLxfpY5t-l5IuzNjs-82" vertex="1">
          <mxGeometry x="249.2307692307692" y="190" width="10.384615384615383" height="10" as="geometry" />
        </mxCell>
        <mxCell id="ikEH7iGtATOYka3_z86n-72" value="" style="rounded=0;whiteSpace=wrap;html=1;fontSize=20;align=center;" parent="CnOsLxfpY5t-l5IuzNjs-82" vertex="1">
          <mxGeometry x="249.2307692307692" y="220" width="10.384615384615383" height="10" as="geometry" />
        </mxCell>
        <mxCell id="ikEH7iGtATOYka3_z86n-73" value="" style="rounded=0;whiteSpace=wrap;html=1;fontSize=20;align=center;" parent="CnOsLxfpY5t-l5IuzNjs-82" vertex="1">
          <mxGeometry x="249.2307692307692" y="250" width="10.384615384615383" height="10" as="geometry" />
        </mxCell>
        <mxCell id="ikEH7iGtATOYka3_z86n-74" value="" style="rounded=0;whiteSpace=wrap;html=1;fontSize=20;align=center;" parent="CnOsLxfpY5t-l5IuzNjs-82" vertex="1">
          <mxGeometry x="249.2307692307692" y="280" width="10.384615384615383" height="10" as="geometry" />
        </mxCell>
        <mxCell id="ikEH7iGtATOYka3_z86n-75" value="" style="rounded=0;whiteSpace=wrap;html=1;fontSize=20;align=center;" parent="CnOsLxfpY5t-l5IuzNjs-82" vertex="1">
          <mxGeometry x="249.2307692307692" y="310" width="10.384615384615383" height="10" as="geometry" />
        </mxCell>
        <mxCell id="ikEH7iGtATOYka3_z86n-76" value="" style="rounded=0;whiteSpace=wrap;html=1;fontSize=20;align=center;" parent="CnOsLxfpY5t-l5IuzNjs-82" vertex="1">
          <mxGeometry x="249.2307692307692" y="340" width="10.384615384615383" height="10" as="geometry" />
        </mxCell>
        <mxCell id="ikEH7iGtATOYka3_z86n-77" value="9" style="text;html=1;strokeColor=none;fillColor=none;align=right;verticalAlign=middle;whiteSpace=wrap;rounded=0;fontSize=20;" parent="CnOsLxfpY5t-l5IuzNjs-82" vertex="1">
          <mxGeometry x="197.3076923076923" y="5" width="41.53846153846153" height="20" as="geometry" />
        </mxCell>
        <mxCell id="ikEH7iGtATOYka3_z86n-78" value="8" style="text;html=1;strokeColor=none;fillColor=none;align=right;verticalAlign=middle;whiteSpace=wrap;rounded=0;fontSize=20;" parent="CnOsLxfpY5t-l5IuzNjs-82" vertex="1">
          <mxGeometry x="197.3076923076923" y="35" width="41.53846153846153" height="20" as="geometry" />
        </mxCell>
        <mxCell id="ikEH7iGtATOYka3_z86n-79" value="7" style="text;html=1;strokeColor=none;fillColor=none;align=right;verticalAlign=middle;whiteSpace=wrap;rounded=0;fontSize=20;" parent="CnOsLxfpY5t-l5IuzNjs-82" vertex="1">
          <mxGeometry x="197.3076923076923" y="65" width="41.53846153846153" height="20" as="geometry" />
        </mxCell>
        <mxCell id="ikEH7iGtATOYka3_z86n-80" value="6" style="text;html=1;strokeColor=none;fillColor=none;align=right;verticalAlign=middle;whiteSpace=wrap;rounded=0;fontSize=20;" parent="CnOsLxfpY5t-l5IuzNjs-82" vertex="1">
          <mxGeometry x="197.3076923076923" y="95" width="41.53846153846153" height="20" as="geometry" />
        </mxCell>
        <mxCell id="ikEH7iGtATOYka3_z86n-81" value="5" style="text;html=1;strokeColor=none;fillColor=none;align=right;verticalAlign=middle;whiteSpace=wrap;rounded=0;fontSize=20;" parent="CnOsLxfpY5t-l5IuzNjs-82" vertex="1">
          <mxGeometry x="197.3076923076923" y="125" width="41.53846153846153" height="20" as="geometry" />
        </mxCell>
        <mxCell id="ikEH7iGtATOYka3_z86n-82" value="4" style="text;html=1;strokeColor=none;fillColor=none;align=right;verticalAlign=middle;whiteSpace=wrap;rounded=0;fontSize=20;" parent="CnOsLxfpY5t-l5IuzNjs-82" vertex="1">
          <mxGeometry x="197.3076923076923" y="155" width="41.53846153846153" height="20" as="geometry" />
        </mxCell>
        <mxCell id="ikEH7iGtATOYka3_z86n-83" value="3" style="text;html=1;strokeColor=none;fillColor=none;align=right;verticalAlign=middle;whiteSpace=wrap;rounded=0;fontSize=20;" parent="CnOsLxfpY5t-l5IuzNjs-82" vertex="1">
          <mxGeometry x="197.3076923076923" y="185" width="41.53846153846153" height="20" as="geometry" />
        </mxCell>
        <mxCell id="ikEH7iGtATOYka3_z86n-84" value="2" style="text;html=1;strokeColor=none;fillColor=none;align=right;verticalAlign=middle;whiteSpace=wrap;rounded=0;fontSize=20;" parent="CnOsLxfpY5t-l5IuzNjs-82" vertex="1">
          <mxGeometry x="197.3076923076923" y="215" width="41.53846153846153" height="20" as="geometry" />
        </mxCell>
        <mxCell id="ikEH7iGtATOYka3_z86n-89" value="GND" style="text;html=1;strokeColor=none;fillColor=none;align=right;verticalAlign=middle;whiteSpace=wrap;rounded=0;fontSize=20;" parent="CnOsLxfpY5t-l5IuzNjs-82" vertex="1">
          <mxGeometry x="197.3076923076923" y="245" width="41.53846153846153" height="20" as="geometry" />
        </mxCell>
        <mxCell id="ikEH7iGtATOYka3_z86n-90" value="RST" style="text;html=1;strokeColor=none;fillColor=none;align=right;verticalAlign=middle;whiteSpace=wrap;rounded=0;fontSize=20;" parent="CnOsLxfpY5t-l5IuzNjs-82" vertex="1">
          <mxGeometry x="197.3076923076923" y="275" width="41.53846153846153" height="20" as="geometry" />
        </mxCell>
        <mxCell id="ikEH7iGtATOYka3_z86n-91" value="RX" style="text;html=1;strokeColor=none;fillColor=none;align=right;verticalAlign=middle;whiteSpace=wrap;rounded=0;fontSize=20;" parent="CnOsLxfpY5t-l5IuzNjs-82" vertex="1">
          <mxGeometry x="197.3076923076923" y="305" width="41.53846153846153" height="20" as="geometry" />
        </mxCell>
        <mxCell id="ikEH7iGtATOYka3_z86n-92" value="TX" style="text;html=1;strokeColor=none;fillColor=none;align=right;verticalAlign=middle;whiteSpace=wrap;rounded=0;fontSize=20;" parent="CnOsLxfpY5t-l5IuzNjs-82" vertex="1">
          <mxGeometry x="197.3076923076923" y="335" width="41.53846153846153" height="20" as="geometry" />
        </mxCell>
        <mxCell id="ikEH7iGtATOYka3_z86n-104" value="" style="rounded=0;whiteSpace=wrap;html=1;fontSize=20;align=center;" parent="CnOsLxfpY5t-l5IuzNjs-82" vertex="1">
          <mxGeometry x="83.07692307692307" y="10" width="10.384615384615383" height="10" as="geometry" />
        </mxCell>
        <mxCell id="ikEH7iGtATOYka3_z86n-105" value="" style="rounded=0;whiteSpace=wrap;html=1;fontSize=20;align=center;" parent="CnOsLxfpY5t-l5IuzNjs-82" vertex="1">
          <mxGeometry x="114.23076923076923" y="10" width="10.384615384615383" height="10" as="geometry" />
        </mxCell>
        <mxCell id="ikEH7iGtATOYka3_z86n-106" value="&lt;div&gt;A7&lt;/div&gt;" style="text;html=1;strokeColor=none;fillColor=none;align=left;verticalAlign=middle;whiteSpace=wrap;rounded=0;fontSize=20;rotation=-90;" parent="CnOsLxfpY5t-l5IuzNjs-82" vertex="1">
          <mxGeometry x="72.69230769230768" y="32.5" width="31.15384615384615" height="25" as="geometry" />
        </mxCell>
        <mxCell id="ikEH7iGtATOYka3_z86n-107" value="A6" style="text;html=1;strokeColor=none;fillColor=none;align=left;verticalAlign=middle;whiteSpace=wrap;rounded=0;fontSize=20;rotation=-90;" parent="CnOsLxfpY5t-l5IuzNjs-82" vertex="1">
          <mxGeometry x="103.84615384615384" y="32.5" width="31.15384615384615" height="25" as="geometry" />
        </mxCell>
        <mxCell id="ikEH7iGtATOYka3_z86n-108" value="" style="rounded=0;whiteSpace=wrap;html=1;fontSize=20;align=center;" parent="CnOsLxfpY5t-l5IuzNjs-82" vertex="1">
          <mxGeometry x="145.38461538461536" y="10" width="10.384615384615383" height="10" as="geometry" />
        </mxCell>
        <mxCell id="ikEH7iGtATOYka3_z86n-109" value="" style="rounded=0;whiteSpace=wrap;html=1;fontSize=20;align=center;" parent="CnOsLxfpY5t-l5IuzNjs-82" vertex="1">
          <mxGeometry x="176.53846153846152" y="10" width="10.384615384615383" height="10" as="geometry" />
        </mxCell>
        <mxCell id="ikEH7iGtATOYka3_z86n-110" value="A5" style="text;html=1;strokeColor=none;fillColor=none;align=left;verticalAlign=middle;whiteSpace=wrap;rounded=0;fontSize=20;rotation=-90;" parent="CnOsLxfpY5t-l5IuzNjs-82" vertex="1">
          <mxGeometry x="135" y="32.5" width="31.15384615384615" height="25" as="geometry" />
        </mxCell>
        <mxCell id="ikEH7iGtATOYka3_z86n-111" value="A4" style="text;html=1;strokeColor=none;fillColor=none;align=left;verticalAlign=middle;whiteSpace=wrap;rounded=0;fontSize=20;rotation=-90;" parent="CnOsLxfpY5t-l5IuzNjs-82" vertex="1">
          <mxGeometry x="166.15384615384613" y="32.5" width="31.15384615384615" height="25" as="geometry" />
        </mxCell>
        <mxCell id="ikEH7iGtATOYka3_z86n-113" value="Arduino Pro Mini / ATmega168" style="text;html=1;strokeColor=none;fillColor=none;align=center;verticalAlign=middle;whiteSpace=wrap;rounded=0;fontSize=20;" parent="CnOsLxfpY5t-l5IuzNjs-82" vertex="1">
          <mxGeometry x="72.69230769230768" y="135" width="124.6153846153846" height="70" as="geometry" />
        </mxCell>
        <mxCell id="CnOsLxfpY5t-l5IuzNjs-1" value="MOSI" style="text;html=1;strokeColor=none;fillColor=none;align=center;verticalAlign=middle;whiteSpace=wrap;rounded=0;" vertex="1" parent="CnOsLxfpY5t-l5IuzNjs-82">
          <mxGeometry x="31.15384615384615" y="45" width="41.53846153846153" height="20" as="geometry" />
        </mxCell>
        <mxCell id="CnOsLxfpY5t-l5IuzNjs-87" style="edgeStyle=orthogonalEdgeStyle;rounded=0;orthogonalLoop=1;jettySize=auto;html=1;exitX=1;exitY=0.5;exitDx=0;exitDy=0;fontSize=20;endArrow=oval;endFill=1;" edge="1" parent="1" source="ikEH7iGtATOYka3_z86n-72">
          <mxGeometry relative="1" as="geometry">
            <mxPoint x="640" y="960" as="targetPoint" />
            <Array as="points">
              <mxPoint x="750" y="625" />
              <mxPoint x="750" y="960" />
            </Array>
          </mxGeometry>
        </mxCell>
        <mxCell id="CnOsLxfpY5t-l5IuzNjs-88" value="" style="rounded=0;whiteSpace=wrap;html=1;fontSize=20;align=center;" vertex="1" parent="1">
          <mxGeometry x="280" y="905" width="10" height="10" as="geometry" />
        </mxCell>
        <mxCell id="CnOsLxfpY5t-l5IuzNjs-89" value="" style="rounded=0;whiteSpace=wrap;html=1;fontSize=20;align=center;" vertex="1" parent="1">
          <mxGeometry x="280" y="935" width="10" height="10" as="geometry" />
        </mxCell>
        <mxCell id="CnOsLxfpY5t-l5IuzNjs-90" value="" style="rounded=0;whiteSpace=wrap;html=1;fontSize=20;align=center;" vertex="1" parent="1">
          <mxGeometry x="280" y="965" width="10" height="10" as="geometry" />
        </mxCell>
        <mxCell id="CnOsLxfpY5t-l5IuzNjs-91" value="" style="rounded=0;whiteSpace=wrap;html=1;fontSize=20;align=center;" vertex="1" parent="1">
          <mxGeometry x="280" y="995" width="10" height="10" as="geometry" />
        </mxCell>
        <mxCell id="CnOsLxfpY5t-l5IuzNjs-92" value="GND" style="text;html=1;strokeColor=none;fillColor=none;align=left;verticalAlign=middle;whiteSpace=wrap;rounded=0;fontSize=20;" vertex="1" parent="1">
          <mxGeometry x="300" y="900" width="50" height="20" as="geometry" />
        </mxCell>
        <mxCell id="CnOsLxfpY5t-l5IuzNjs-93" value="A" style="text;html=1;strokeColor=none;fillColor=none;align=left;verticalAlign=middle;whiteSpace=wrap;rounded=0;fontSize=20;" vertex="1" parent="1">
          <mxGeometry x="300" y="930" width="50" height="20" as="geometry" />
        </mxCell>
        <mxCell id="CnOsLxfpY5t-l5IuzNjs-94" value="B" style="text;html=1;strokeColor=none;fillColor=none;align=left;verticalAlign=middle;whiteSpace=wrap;rounded=0;fontSize=20;" vertex="1" parent="1">
          <mxGeometry x="300" y="960" width="50" height="20" as="geometry" />
        </mxCell>
        <mxCell id="CnOsLxfpY5t-l5IuzNjs-95" value="VCC" style="text;html=1;strokeColor=none;fillColor=none;align=left;verticalAlign=middle;whiteSpace=wrap;rounded=0;fontSize=20;" vertex="1" parent="1">
          <mxGeometry x="300" y="990" width="50" height="20" as="geometry" />
        </mxCell>
        <mxCell id="ikEH7iGtATOYka3_z86n-143" style="edgeStyle=orthogonalEdgeStyle;rounded=0;orthogonalLoop=1;jettySize=auto;html=1;exitX=0;exitY=0.5;exitDx=0;exitDy=0;entryX=1;entryY=0.5;entryDx=0;entryDy=0;fontSize=20;endArrow=none;endFill=0;strokeWidth=1;" parent="1" source="ikEH7iGtATOYka3_z86n-36" target="ikEH7iGtATOYka3_z86n-140" edge="1">
          <mxGeometry relative="1" as="geometry" />
        </mxCell>
        <mxCell id="ikEH7iGtATOYka3_z86n-144" style="edgeStyle=orthogonalEdgeStyle;rounded=0;orthogonalLoop=1;jettySize=auto;html=1;exitX=0;exitY=0.5;exitDx=0;exitDy=0;entryX=1;entryY=0.5;entryDx=0;entryDy=0;fontSize=20;endArrow=none;endFill=0;strokeWidth=1;" parent="1" source="ikEH7iGtATOYka3_z86n-35" target="ikEH7iGtATOYka3_z86n-139" edge="1">
          <mxGeometry relative="1" as="geometry" />
        </mxCell>
        <mxCell id="CnOsLxfpY5t-l5IuzNjs-85" style="edgeStyle=orthogonalEdgeStyle;rounded=0;orthogonalLoop=1;jettySize=auto;html=1;exitX=1;exitY=0.5;exitDx=0;exitDy=0;entryX=1;entryY=0.5;entryDx=0;entryDy=0;fontSize=20;endArrow=none;endFill=0;" edge="1" parent="1" source="CnOsLxfpY5t-l5IuzNjs-3" target="ikEH7iGtATOYka3_z86n-76">
          <mxGeometry relative="1" as="geometry">
            <Array as="points">
              <mxPoint x="690" y="910" />
              <mxPoint x="690" y="745" />
            </Array>
          </mxGeometry>
        </mxCell>
        <mxCell id="CnOsLxfpY5t-l5IuzNjs-84" style="edgeStyle=orthogonalEdgeStyle;rounded=0;orthogonalLoop=1;jettySize=auto;html=1;exitX=1;exitY=0.5;exitDx=0;exitDy=0;entryX=1;entryY=0.5;entryDx=0;entryDy=0;fontSize=20;endArrow=none;endFill=0;" edge="1" parent="1" source="CnOsLxfpY5t-l5IuzNjs-6" target="ikEH7iGtATOYka3_z86n-75">
          <mxGeometry relative="1" as="geometry">
            <Array as="points">
              <mxPoint x="700" y="1000" />
              <mxPoint x="700" y="715" />
            </Array>
          </mxGeometry>
        </mxCell>
        <mxCell id="ikEH7iGtATOYka3_z86n-118" style="edgeStyle=orthogonalEdgeStyle;rounded=0;orthogonalLoop=1;jettySize=auto;html=1;exitX=0;exitY=0.5;exitDx=0;exitDy=0;entryX=0;entryY=0.5;entryDx=0;entryDy=0;fontSize=20;endArrow=none;endFill=0;" parent="1" source="ikEH7iGtATOYka3_z86n-10" target="ikEH7iGtATOYka3_z86n-25" edge="1">
          <mxGeometry relative="1" as="geometry">
            <Array as="points">
              <mxPoint x="345" y="220" />
              <mxPoint x="345" y="415" />
            </Array>
          </mxGeometry>
        </mxCell>
        <mxCell id="ikEH7iGtATOYka3_z86n-119" style="edgeStyle=orthogonalEdgeStyle;rounded=0;orthogonalLoop=1;jettySize=auto;html=1;exitX=0;exitY=0.5;exitDx=0;exitDy=0;entryX=0;entryY=0.5;entryDx=0;entryDy=0;fontSize=20;endArrow=none;endFill=0;" parent="1" source="ikEH7iGtATOYka3_z86n-8" target="ikEH7iGtATOYka3_z86n-26" edge="1">
          <mxGeometry relative="1" as="geometry">
            <Array as="points">
              <mxPoint x="325" y="445" />
            </Array>
          </mxGeometry>
        </mxCell>
        <mxCell id="ikEH7iGtATOYka3_z86n-120" style="edgeStyle=orthogonalEdgeStyle;rounded=0;orthogonalLoop=1;jettySize=auto;html=1;exitX=0.5;exitY=0;exitDx=0;exitDy=0;entryX=0;entryY=0.5;entryDx=0;entryDy=0;fontSize=20;endArrow=none;endFill=0;" parent="1" source="ikEH7iGtATOYka3_z86n-7" target="ikEH7iGtATOYka3_z86n-27" edge="1">
          <mxGeometry relative="1" as="geometry">
            <Array as="points">
              <mxPoint x="420" y="150" />
              <mxPoint x="305" y="150" />
              <mxPoint x="305" y="475" />
            </Array>
          </mxGeometry>
        </mxCell>
        <mxCell id="ikEH7iGtATOYka3_z86n-121" style="edgeStyle=orthogonalEdgeStyle;rounded=0;orthogonalLoop=1;jettySize=auto;html=1;exitX=1;exitY=0.5;exitDx=0;exitDy=0;entryX=0;entryY=0.5;entryDx=0;entryDy=0;fontSize=20;endArrow=none;endFill=0;" parent="1" source="ikEH7iGtATOYka3_z86n-9" target="ikEH7iGtATOYka3_z86n-28" edge="1">
          <mxGeometry relative="1" as="geometry">
            <Array as="points">
              <mxPoint x="435" y="190" />
              <mxPoint x="435" y="80" />
              <mxPoint x="285" y="80" />
              <mxPoint x="285" y="505" />
            </Array>
          </mxGeometry>
        </mxCell>
        <mxCell id="UNyBaQ08NMkPxlNUkWCC-8" style="edgeStyle=orthogonalEdgeStyle;rounded=0;orthogonalLoop=1;jettySize=auto;html=1;entryX=1;entryY=0.5;entryDx=0;entryDy=0;fontSize=20;endArrow=none;endFill=0;strokeWidth=1;" parent="1" target="UNyBaQ08NMkPxlNUkWCC-5" edge="1">
          <mxGeometry relative="1" as="geometry">
            <mxPoint x="370" y="625" as="sourcePoint" />
          </mxGeometry>
        </mxCell>
        <mxCell id="UNyBaQ08NMkPxlNUkWCC-9" style="edgeStyle=orthogonalEdgeStyle;rounded=0;orthogonalLoop=1;jettySize=auto;html=1;entryX=1;entryY=0.5;entryDx=0;entryDy=0;fontSize=20;endArrow=none;endFill=0;strokeWidth=1;" parent="1" target="UNyBaQ08NMkPxlNUkWCC-4" edge="1">
          <mxGeometry relative="1" as="geometry">
            <mxPoint x="370" y="595" as="sourcePoint" />
          </mxGeometry>
        </mxCell>
        <mxCell id="CnOsLxfpY5t-l5IuzNjs-96" value="" style="ellipse;whiteSpace=wrap;html=1;aspect=fixed;fontSize=20;align=left;verticalAlign=top;fillColor=#000000;" vertex="1" parent="1">
          <mxGeometry x="204.62" y="905" width="10" height="10" as="geometry" />
        </mxCell>
        <mxCell id="CnOsLxfpY5t-l5IuzNjs-97" value="" style="ellipse;whiteSpace=wrap;html=1;aspect=fixed;fontSize=20;align=left;verticalAlign=top;fillColor=#000000;" vertex="1" parent="1">
          <mxGeometry x="204.62" y="935" width="10" height="10" as="geometry" />
        </mxCell>
        <mxCell id="CnOsLxfpY5t-l5IuzNjs-98" value="GND" style="text;html=1;strokeColor=none;fillColor=none;align=right;verticalAlign=middle;whiteSpace=wrap;rounded=0;fontSize=20;" vertex="1" parent="1">
          <mxGeometry x="139.62" y="900" width="55" height="20" as="geometry" />
        </mxCell>
        <mxCell id="CnOsLxfpY5t-l5IuzNjs-99" value="RS485-A" style="text;html=1;strokeColor=none;fillColor=none;align=right;verticalAlign=middle;whiteSpace=wrap;rounded=0;fontSize=20;" vertex="1" parent="1">
          <mxGeometry x="110" y="930" width="84.62" height="20" as="geometry" />
        </mxCell>
        <mxCell id="CnOsLxfpY5t-l5IuzNjs-100" style="edgeStyle=orthogonalEdgeStyle;rounded=0;orthogonalLoop=1;jettySize=auto;html=1;exitX=0;exitY=0.5;exitDx=0;exitDy=0;entryX=1;entryY=0.5;entryDx=0;entryDy=0;fontSize=20;endArrow=none;endFill=0;strokeWidth=1;" edge="1" parent="1" target="CnOsLxfpY5t-l5IuzNjs-97">
          <mxGeometry relative="1" as="geometry">
            <mxPoint x="280.00461538461525" y="939.9999999999998" as="sourcePoint" />
          </mxGeometry>
        </mxCell>
        <mxCell id="CnOsLxfpY5t-l5IuzNjs-101" style="edgeStyle=orthogonalEdgeStyle;rounded=0;orthogonalLoop=1;jettySize=auto;html=1;exitX=0;exitY=0.5;exitDx=0;exitDy=0;entryX=1;entryY=0.5;entryDx=0;entryDy=0;fontSize=20;endArrow=none;endFill=0;strokeWidth=1;" edge="1" parent="1" target="CnOsLxfpY5t-l5IuzNjs-96">
          <mxGeometry relative="1" as="geometry">
            <mxPoint x="280.00461538461525" y="909.9999999999998" as="sourcePoint" />
          </mxGeometry>
        </mxCell>
        <mxCell id="CnOsLxfpY5t-l5IuzNjs-102" value="" style="ellipse;whiteSpace=wrap;html=1;aspect=fixed;fontSize=20;align=left;verticalAlign=top;fillColor=#000000;" vertex="1" parent="1">
          <mxGeometry x="204.62" y="965" width="10" height="10" as="geometry" />
        </mxCell>
        <mxCell id="CnOsLxfpY5t-l5IuzNjs-103" value="" style="ellipse;whiteSpace=wrap;html=1;aspect=fixed;fontSize=20;align=left;verticalAlign=top;fillColor=#000000;" vertex="1" parent="1">
          <mxGeometry x="204.62" y="995" width="10" height="10" as="geometry" />
        </mxCell>
        <mxCell id="CnOsLxfpY5t-l5IuzNjs-104" value="RS485-B" style="text;html=1;strokeColor=none;fillColor=none;align=right;verticalAlign=middle;whiteSpace=wrap;rounded=0;fontSize=20;" vertex="1" parent="1">
          <mxGeometry x="110" y="960" width="84.62" height="20" as="geometry" />
        </mxCell>
        <mxCell id="CnOsLxfpY5t-l5IuzNjs-105" value="&lt;div&gt;5V&lt;/div&gt;" style="text;html=1;strokeColor=none;fillColor=none;align=right;verticalAlign=middle;whiteSpace=wrap;rounded=0;fontSize=20;" vertex="1" parent="1">
          <mxGeometry x="129.62" y="990" width="65" height="20" as="geometry" />
        </mxCell>
        <mxCell id="CnOsLxfpY5t-l5IuzNjs-106" style="edgeStyle=orthogonalEdgeStyle;rounded=0;orthogonalLoop=1;jettySize=auto;html=1;exitX=0;exitY=0.5;exitDx=0;exitDy=0;entryX=1;entryY=0.5;entryDx=0;entryDy=0;fontSize=20;endArrow=none;endFill=0;strokeWidth=1;" edge="1" parent="1" target="CnOsLxfpY5t-l5IuzNjs-103">
          <mxGeometry relative="1" as="geometry">
            <mxPoint x="280.00461538461525" y="999.9999999999998" as="sourcePoint" />
          </mxGeometry>
        </mxCell>
        <mxCell id="CnOsLxfpY5t-l5IuzNjs-107" style="edgeStyle=orthogonalEdgeStyle;rounded=0;orthogonalLoop=1;jettySize=auto;html=1;exitX=0;exitY=0.5;exitDx=0;exitDy=0;entryX=1;entryY=0.5;entryDx=0;entryDy=0;fontSize=20;endArrow=none;endFill=0;strokeWidth=1;" edge="1" parent="1" target="CnOsLxfpY5t-l5IuzNjs-102">
          <mxGeometry relative="1" as="geometry">
            <mxPoint x="280.00461538461525" y="969.9999999999998" as="sourcePoint" />
          </mxGeometry>
        </mxCell>
        <mxCell id="CnOsLxfpY5t-l5IuzNjs-108" value="" style="ellipse;whiteSpace=wrap;html=1;aspect=fixed;fontSize=20;align=left;verticalAlign=top;fillColor=#000000;" vertex="1" parent="1">
          <mxGeometry x="700" y="590" width="10" height="10" as="geometry" />
        </mxCell>
        <mxCell id="CnOsLxfpY5t-l5IuzNjs-109" value="Invert 2" style="text;html=1;strokeColor=none;fillColor=none;align=right;verticalAlign=middle;whiteSpace=wrap;rounded=0;fontSize=20;fontFamily=Courier New;" vertex="1" parent="1">
          <mxGeometry x="710" y="585" width="105" height="20" as="geometry" />
        </mxCell>
        <mxCell id="CnOsLxfpY5t-l5IuzNjs-110" style="edgeStyle=orthogonalEdgeStyle;rounded=0;orthogonalLoop=1;jettySize=auto;html=1;entryX=1;entryY=0.5;entryDx=0;entryDy=0;fontSize=20;endArrow=none;endFill=0;strokeWidth=1;" edge="1" parent="1" target="ikEH7iGtATOYka3_z86n-71">
          <mxGeometry relative="1" as="geometry">
            <mxPoint x="700" y="595" as="sourcePoint" />
          </mxGeometry>
        </mxCell>
      </root>
    </mxGraphModel>
  </diagram>
</mxfile>
